<svg xmlns="http://www.w3.org/2000/svg" width="29.703" height="24.303" viewBox="0 0 29.703 24.303">
  <path id="computer_FILL0_wght400_GRAD0_opsz48" d="M3.013,30.3a1.013,1.013,0,1,1,0-2.025H30.691a1.013,1.013,0,1,1,0,2.025Zm2.363-4.05a1.943,1.943,0,0,1-1.418-.608,1.943,1.943,0,0,1-.608-1.418V8.025a1.943,1.943,0,0,1,.608-1.418A1.943,1.943,0,0,1,5.375,6H28.328a2.076,2.076,0,0,1,2.025,2.025v16.2a2.076,2.076,0,0,1-2.025,2.025Zm0-2.025H28.328V8.025H5.375Zm0,0v0Z" transform="translate(-2 -6)" fill="#fff"/>
</svg>
